<?xml version="1.0" encoding="UTF-8"?>
<svg width="40px" height="37px" viewBox="0 0 40 37" version="1.1" xmlns="http://www.w3.org/2000/svg" xmlns:xlink="http://www.w3.org/1999/xlink">
    <title>Collect AGI Token 5</title>
    <defs>
        <polygon id="path-1" points="0 0.193236715 40 0.193236715 40 36.1352657 0 36.1352657"></polygon>
    </defs>
    <g id="Symbols" stroke="none" stroke-width="1" fill="none" fill-rule="evenodd">
        <g id="Dropdown-menu/Products" transform="translate(-334.000000, -65.000000)">
            <g id="Group" transform="translate(0.000000, 16.000000)">
                <g id="Menu" transform="translate(0.000000, 34.000000)">
                    <g id="AI-Marketplace-Copy-2" transform="translate(318.000000, 2.000000)">
                        <g id="ROW">
                            <g id="↳-Body-1-Color-&amp;-Style" transform="translate(16.000000, 11.000000)">
                                <g id="Collect-AGI-Token-5" transform="translate(0.000000, 2.000000)">
                                    <mask id="mask-2" fill="white">
                                        <use xlink:href="#path-1"></use>
                                    </mask>
                                    <g id="Clip-2"></g>
                                    <path d="M3.37303301,33.961411 L18.0764816,33.961411 L18.0764816,30.7731219 L3.37303301,30.7731219 L3.37303301,33.961411 Z M18.147292,35.5555556 L3.30198336,35.5555556 C2.44029712,35.5555556 1.73913043,34.8713503 1.73913043,34.0307419 L1.73913043,30.703791 C1.73913043,29.8629492 2.44029712,29.178744 3.30198336,29.178744 L18.147292,29.178744 C19.0089782,29.178744 19.7101449,29.8629492 19.7101449,30.703791 L19.7101449,34.0307419 C19.7101449,34.8713503 19.0089782,35.5555556 18.147292,35.5555556 L18.147292,35.5555556 Z" id="Fill-1" fill="#220D3A" mask="url(#mask-2)"></path>
                                    <path d="M3.24632928,30.9178744 L1.5526956,30.9178744 C0.696609643,30.9178744 0,30.2334357 0,29.3928274 L0,26.0658764 C0,25.2250346 0.696609643,24.5410628 1.5526956,24.5410628 L3.24632928,24.5410628 C3.69457417,24.5410628 4.05797101,24.8975218 4.05797101,25.3382518 C4.05797101,25.7785149 3.69457417,26.1352073 3.24632928,26.1352073 L1.6230458,26.1352073 L1.6230458,29.3234964 L3.24632928,29.3234964 C3.69457417,29.3234964 4.05797101,29.6799554 4.05797101,30.1206854 C4.05797101,30.5614154 3.69457417,30.9178744 3.24632928,30.9178744" id="Fill-3" fill="#220D3A" mask="url(#mask-2)"></path>
                                    <path d="M16.4482773,30.9178744 C16.0086138,30.9178744 15.6521739,30.5614154 15.6521739,30.1206854 C15.6521739,29.7035326 15.9717809,29.3617802 16.3790408,29.3267645 L16.3790408,26.1319392 C15.9717809,26.097157 15.6521739,25.7554046 15.6521739,25.3382518 C15.6521739,24.8975218 16.0086138,24.5410628 16.4482773,24.5410628 C17.287741,24.5410628 17.9710145,25.2252681 17.9710145,26.0658764 L17.9710145,29.3928274 C17.9710145,30.2336691 17.287741,30.9178744 16.4482773,30.9178744 L16.4482773,30.9178744 Z" id="Fill-4" fill="#220D3A" mask="url(#mask-2)"></path>
                                    <path d="M18.147292,25.7004831 L3.30198336,25.7004831 C2.44029712,25.7004831 1.73913043,25.0163029 1.73913043,24.1757253 L1.73913043,20.8488961 C1.73913043,20.0080851 2.44029712,19.3236715 3.30198336,19.3236715 C3.75292133,19.3236715 4.11869542,19.6803509 4.11869542,20.1208313 C4.11869542,20.5382022 3.79095801,20.8797088 3.37279378,20.9149565 L3.37279378,24.1063969 L18.0762424,24.1063969 L18.0762424,20.9329306 L16.442579,20.9182245 C15.991641,20.9182245 15.6258669,20.5615451 15.6258669,20.1208313 C15.6258669,19.6803509 15.991641,19.3236715 16.442579,19.3236715 L18.0762424,19.3236715 C18.961851,19.3236715 19.7101449,20.0220909 19.7101449,20.8488961 L19.7101449,24.1757253 C19.7101449,25.0163029 19.0089782,25.7004831 18.147292,25.7004831 L18.147292,25.7004831 Z" id="Fill-5" fill="#220D3A" mask="url(#mask-2)"></path>
                                    <path d="M1.63366335,19.468424 L16.3371119,19.468424 L16.3371119,16.2801349 L1.63366335,16.2801349 L1.63366335,19.468424 Z M16.4081616,21.0628019 L1.56285293,21.0628019 C0.701166682,21.0628019 0,20.3783632 0,19.5377549 L0,16.2108039 C0,15.3701956 0.701166682,14.6859903 1.56285293,14.6859903 L16.4081616,14.6859903 C17.2696086,14.6859903 17.9710145,15.3701956 17.9710145,16.2108039 L17.9710145,19.5377549 C17.9710145,20.3783632 17.2696086,21.0628019 16.4081616,21.0628019 L16.4081616,21.0628019 Z" id="Fill-6" fill="#220D3A" mask="url(#mask-2)"></path>
                                    <path d="M18.147292,16.4251208 L3.30198336,16.4251208 C2.44029712,16.4251208 1.73913043,15.7409155 1.73913043,14.9003072 L1.73913043,11.5733562 C1.73913043,10.7327479 2.44029712,10.0483092 3.30198336,10.0483092 C3.75292133,10.0483092 4.11869542,10.4050016 4.11869542,10.8454982 C4.11869542,11.2628844 3.79095801,11.6044034 3.37279378,11.639419 L3.37279378,14.8309762 L18.0762424,14.8309762 L18.0762424,11.6573937 L16.442579,11.6426872 C15.991641,11.6426872 15.6258669,11.2862281 15.6258669,10.8454982 C15.6258669,10.4050016 15.991641,10.0483092 16.442579,10.0483092 L18.0762424,10.0483092 C18.961851,10.0483092 19.7101449,10.7467541 19.7101449,11.5733562 L19.7101449,14.9003072 C19.7101449,15.7409155 19.0089782,16.4251208 18.147292,16.4251208 L18.147292,16.4251208 Z" id="Fill-7" fill="#220D3A" mask="url(#mask-2)"></path>
                                    <path d="M1.63366335,9.61358493 L16.3371119,9.61358493 L16.3371119,6.42529585 L1.63366335,6.42529585 L1.63366335,9.61358493 Z M16.4081616,11.2077295 L1.56285293,11.2077295 C0.701166682,11.2077295 0,10.5235242 0,9.68291586 L0,6.35596492 C0,5.51512312 0.701166682,4.83091787 1.56285293,4.83091787 L16.4081616,4.83091787 C17.2696086,4.83091787 17.9710145,5.51512312 17.9710145,6.35596492 L17.9710145,9.68291586 C17.9710145,10.5235242 17.2696086,11.2077295 16.4081616,11.2077295 L16.4081616,11.2077295 Z" id="Fill-8" fill="#220D3A" mask="url(#mask-2)"></path>
                                    <path d="M18.0762424,4.9757287 L3.37279378,4.9757287 L3.37279378,1.78755633 L18.0762424,1.80226235 L18.0762424,4.9757287 Z M18.0762424,0.193236715 L3.20844663,0.193236715 C3.13644009,0.193236715 3.06802191,0.205141591 3.00175676,0.222181903 C2.28312669,0.359204686 1.73913043,0.977791359 1.73913043,1.71822793 L1.73913043,5.04505709 C1.73913043,5.88563468 2.44029712,6.57004831 3.30174414,6.57004831 L18.147292,6.57004831 C19.008739,6.57004831 19.7101449,5.88563468 19.7101449,5.04505709 L19.7101449,1.71822793 C19.7101449,0.891422654 18.961851,0.193236715 18.0762424,0.193236715 L18.0762424,0.193236715 Z" id="Fill-9" fill="#220D3A" mask="url(#mask-2)"></path>
                                    <path d="M36.6980166,35.5555556 L21.8524688,35.5555556 C20.9910218,35.5555556 20.2898551,34.8713503 20.2898551,34.0307419 L20.2898551,30.7035576 C20.2898551,29.8631826 20.9910218,29.178744 21.8524688,29.178744 L23.5571818,29.178744 C24.0088374,29.178744 24.3741331,29.535203 24.3741331,29.9759329 C24.3741331,30.4164295 24.0088374,30.7728885 23.5571818,30.7728885 L21.9235184,30.7728885 L21.9235184,33.961411 L36.626967,33.961411 L36.626967,30.7698538 C36.209042,30.7348382 35.8813046,30.3930857 35.8813046,29.9759329 C35.8813046,29.535203 36.2466002,29.178744 36.6980166,29.178744 C37.5597029,29.178744 38.2608696,29.8631826 38.2608696,30.7035576 L38.2608696,34.0307419 C38.2608696,34.8713503 37.5597029,35.5555556 36.6980166,35.5555556 L36.6980166,35.5555556 Z" id="Fill-10" fill="#220D3A" mask="url(#mask-2)"></path>
                                    <path d="M38.3663367,29.3236715 L23.6626489,29.3236715 L23.6626489,26.1352657 L38.3663367,26.1499728 L38.3663367,29.3236715 Z M38.3663367,24.5410628 L23.5750927,24.5410628 C23.5693513,24.5410628 23.5640884,24.5426969 23.5585862,24.5426969 C22.7122104,24.5602054 22.0289855,25.2360316 22.0289855,26.0659322 L22.0289855,29.393005 C22.0289855,30.2336441 22.7303914,30.9178744 23.5915992,30.9178744 L38.4373863,30.9178744 C39.2985941,30.9178744 40,30.2336441 40,29.393005 L40,26.0659322 C40,25.2392999 39.2517061,24.5410628 38.3663367,24.5410628 L38.3663367,24.5410628 Z" id="Fill-11" fill="#220D3A" mask="url(#mask-2)"></path>
                                    <path d="M29.2752427,8.2037334 C25.2214002,8.2037334 21.9237359,11.5019639 21.9237359,15.5556752 C21.9237359,19.6091472 25.2214002,22.9073777 29.2752427,22.9073777 C33.3293244,22.9073777 36.6269887,19.6091472 36.6269887,15.5556752 C36.6269887,11.5019639 33.3293244,8.2037334 29.2752427,8.2037334 M29.2752427,24.5410628 C24.3207324,24.5410628 20.2898551,20.5103174 20.2898551,15.5556752 C20.2898551,10.6010329 24.3207324,6.57004831 29.2752427,6.57004831 C34.2299923,6.57004831 38.2608696,10.6010329 38.2608696,15.5556752 C38.2608696,20.5103174 34.2299923,24.5410628 29.2752427,24.5410628" id="Fill-12" fill="#220D3A" mask="url(#mask-2)"></path>
                                    <path d="M32.4435163,18.0930397 C32.3739168,17.3600865 32.0047781,16.611046 31.457246,16.0899107 C30.9199281,15.5712129 30.2816554,15.2355705 29.7186831,14.9396593 L29.6367315,14.8970032 C29.0827858,14.6113294 28.5594829,14.3412556 28.1701531,14.0112195 C27.7684712,13.6811834 27.5173903,13.2892351 27.4012328,12.8097809 C27.2698726,12.3178954 27.3052662,11.8121163 27.504088,11.3455808 C27.6820063,10.9168264 28.0183644,10.4697908 28.5324032,9.97936788 C28.6333581,9.88308703 28.6537867,9.72830644 28.580624,9.61106319 C28.5229015,9.51892608 28.4195712,9.46578881 28.3065017,9.46859903 C28.2580433,9.47090754 28.2124354,9.48333873 28.1711033,9.50576364 C27.4822343,9.87674956 26.9499048,10.3437726 26.58908,10.8934265 C26.1933366,11.4830552 26.019219,12.2589082 26.1109099,13.0225737 C26.1569928,13.3957534 26.2741005,13.7721018 26.4505935,14.1118878 C26.6247111,14.4392427 26.875792,14.7573351 27.1774691,15.0330152 C27.71835,15.5144194 28.337382,15.8242243 28.8834888,16.0974669 L29.0074853,16.1593791 C29.5744957,16.4374967 30.1101507,16.7000143 30.5170585,17.0327317 C30.9206408,17.3483866 31.1831236,17.7622723 31.2978559,18.2639077 C31.4216148,18.777243 31.3757694,19.298622 31.1650705,19.77247 C30.965536,20.2251118 30.606374,20.6770224 30.097086,21.1147956 C29.9797407,21.2157076 29.9576494,21.3858444 30.0460147,21.5113751 C30.1061125,21.5964435 30.2025542,21.6425121 30.3011337,21.6425121 C30.357431,21.6425121 30.4142033,21.6273996 30.4655121,21.5964435 C31.1501054,21.1820703 31.6465662,20.7165098 31.9826867,20.1751433 C32.3572889,19.5879521 32.5252305,18.8294053 32.4435163,18.0930397" id="Fill-13" fill="#4086FF" mask="url(#mask-2)"></path>
                                    <path d="M29.6446773,9.94462183 C29.8805128,10.1876465 30.1803908,10.5120773 30.4061758,10.8606196 C30.9288004,11.7675456 30.8949092,12.7654269 30.3049699,13.8268098 L30.2797269,13.872168 C30.1808583,14.0516912 30.1885714,14.2782436 30.2998278,14.4491726 C30.3767256,14.5675815 30.5050444,14.6506587 30.6513606,14.6773961 C30.6838493,14.6831256 30.7163381,14.6859903 30.7488268,14.6859903 C30.859382,14.6859903 30.9666649,14.6516136 31.0559505,14.5842924 C31.796647,13.9609747 31.8756483,12.6744717 31.883829,12.4199881 C31.8871012,12.1724276 31.8553137,11.9062464 31.7879989,11.6250253 C31.7164769,11.3621862 31.6173746,11.1184454 31.4925617,10.8978611 C31.3520889,10.6627144 31.2076425,10.4674352 31.0515096,10.3015196 C30.7408799,9.97279169 30.3678438,9.7011197 29.9415168,9.49390416 C29.9078594,9.47767068 29.8716309,9.46907649 29.8328314,9.46859903 C29.7673865,9.46955394 29.6872165,9.49987235 29.6360292,9.55668951 C29.5394979,9.66531056 29.5409003,9.8309875 29.644911,9.9443831 L29.6446773,9.94462183 Z" id="Fill-14" fill="#4086FF" mask="url(#mask-2)"></path>
                                    <path d="M28.9057522,21.1710495 C28.6704467,20.9283953 28.3711157,20.6040741 28.144456,20.2539387 C27.6210357,19.3448068 27.6551515,18.344621 28.2458687,17.2808381 L28.2713387,17.2353111 C28.36948,17.0571926 28.3617689,16.8323737 28.2517105,16.6624689 C28.1580089,16.5181436 27.9874299,16.4270896 27.8070368,16.4252122 C27.6873979,16.4231001 27.5862189,16.4575974 27.4936856,16.5275306 C26.7541207,17.1512974 26.6751403,18.4368483 26.6669619,18.6910016 C26.6632231,18.9374106 26.6950022,19.2032977 26.7620655,19.485612 C26.8340358,19.7486829 26.9326444,19.9922758 27.0569568,20.2121665 C27.1971586,20.4473111 27.3413329,20.6423262 27.497658,20.808711 C27.8086725,21.1379603 28.1816095,21.4097142 28.6071222,21.6164631 C28.6431074,21.6340638 28.6814292,21.6425121 28.7192837,21.6425121 C28.7914877,21.6425121 28.862056,21.6120043 28.9139307,21.5540395 C29.011371,21.4446809 29.0080996,21.2768881 28.911594,21.1776204 L28.9057522,21.1710495 Z" id="Fill-15" fill="#4086FF" mask="url(#mask-2)"></path>
                                </g>
                            </g>
                        </g>
                    </g>
                </g>
            </g>
        </g>
    </g>
</svg>