<?xml version="1.0" encoding="UTF-8"?>
<svg width="40px" height="39px" viewBox="0 0 40 39" version="1.1" xmlns="http://www.w3.org/2000/svg" xmlns:xlink="http://www.w3.org/1999/xlink">
    <title>Edit and Update 4</title>
    <defs>
        <polygon id="path-1" points="0 0.133655914 39.875503 0.133655914 39.875503 36.6666667 0 36.6666667"></polygon>
        <polygon id="path-3" points="0.14505541 0.134577465 17.4475027 0.134577465 17.4475027 17.4366796 0.14505541 17.4366796"></polygon>
    </defs>
    <g id="Symbols" stroke="none" stroke-width="1" fill="none" fill-rule="evenodd">
        <g id="Dropdown-menu/Products" transform="translate(-16.000000, -129.000000)">
            <g id="Group" transform="translate(0.000000, 16.000000)">
                <g id="Menu" transform="translate(0.000000, 34.000000)">
                    <g id="AI-Marketplace-Copy" transform="translate(0.000000, 66.000000)">
                        <g id="ROW">
                            <g id="↳-Body-1-Color-&amp;-Style" transform="translate(16.000000, 11.000000)">
                                <g id="Edit-and-Update-4" transform="translate(0.000000, 2.000000)">
                                    <g id="Group-3" transform="translate(0.000000, 1.666667)">
                                        <mask id="mask-2" fill="white">
                                            <use xlink:href="#path-1"></use>
                                        </mask>
                                        <g id="Clip-2"></g>
                                        <path d="M3.32300592,1.79430108 C2.40702959,1.79430108 1.66146746,2.53946237 1.66146746,3.45494624 L1.66146746,30.4702366 C2.38927811,30.0484516 3.3667929,29.8911398 4.15377515,30.1752473 L4.15377515,2.05049462 C3.99874556,1.91589247 3.66785799,1.79430108 3.32300592,1.79430108 M39.0448994,36.6666667 L3.32300592,36.6666667 C1.4903432,36.6666667 -7.10059172e-05,35.1770538 -7.10059172e-05,33.3456129 L-7.10059172e-05,3.45494624 C-7.10059172e-05,1.62326882 1.4903432,0.133655914 3.32300592,0.133655914 C4.21933728,0.133655914 5.31306509,0.538408602 5.73649704,1.44253763 C5.78856805,1.55277419 5.81507692,1.67270968 5.81507692,1.79430108 L5.81507692,31.6847312 C5.81507692,32.0123656 5.62217751,32.309957 5.32276923,32.4431398 C5.02265089,32.5777419 4.67377515,32.5216774 4.42856805,32.3028602 C4.25910059,32.1493333 3.74170414,31.6847312 3.32300592,31.6847312 C2.40702959,31.6847312 1.66146746,32.430129 1.66146746,33.3456129 C1.66146746,34.2608602 2.40702959,35.0062581 3.32300592,35.0062581 L38.2141302,35.0062581 L38.2141302,5.1155914 L23.2607574,5.1155914 C22.8015858,5.1155914 22.4299882,4.74419355 22.4299882,4.28526882 C22.4299882,3.82634409 22.8015858,3.45494624 23.2607574,3.45494624 L39.0448994,3.45494624 C39.5038343,3.45494624 39.8756686,3.82634409 39.8756686,4.28526882 L39.8756686,35.8363441 C39.8756686,36.2952688 39.5038343,36.6666667 39.0448994,36.6666667" id="Fill-1" fill="#220D3A" mask="url(#mask-2)"></path>
                                    </g>
                                    <path d="M8.33329376,6.66666667 L4.99980214,6.66666667 C4.53942891,6.66666667 4.16666667,6.29392213 4.16666667,5.83333333 C4.16666667,5.37274454 4.53942891,5 4.99980214,5 L8.33329376,5 C8.79390443,5 9.16666667,5.37274454 9.16666667,5.83333333 C9.16666667,6.29392213 8.79390443,6.66666667 8.33329376,6.66666667" id="Fill-4" fill="#220D3A"></path>
                                    <path d="M20.8073666,34.1666667 L10.0257219,34.1666667 C9.55102594,34.1666667 9.16666667,33.7939752 9.16666667,33.3332146 C9.16666667,32.8729288 9.55102594,32.5 10.0257219,32.5 L20.8073666,32.5 C21.2820626,32.5 21.6666667,32.8729288 21.6666667,33.3332146 C21.6666667,33.7939752 21.2820626,34.1666667 20.8073666,34.1666667" id="Fill-6" fill="#4086FF"></path>
                                    <path d="M14.1666271,31.6666667 L10.8331355,31.6666667 C10.3727622,31.6666667 10,31.2939752 10,30.833452 C10,30.3729288 10.3727622,30 10.8331355,30 L14.1666271,30 C14.6272378,30 15,30.3729288 15,30.833452 C15,31.2939752 14.6272378,31.6666667 14.1666271,31.6666667" id="Fill-8" fill="#220D3A"></path>
                                    <path d="M18.3117993,28.3333333 L10.0212905,28.3333333 C9.54904325,28.3333333 9.16666667,27.9606419 9.16666667,27.5001187 C9.16666667,27.0395955 9.54904325,26.6666667 10.0212905,26.6666667 L18.3117993,26.6666667 C18.7842901,26.6666667 19.1666667,27.0395955 19.1666667,27.5001187 C19.1666667,27.9606419 18.7842901,28.3333333 18.3117993,28.3333333" id="Fill-10" fill="#220D3A"></path>
                                    <g id="Group-14" transform="translate(6.666667, 0.000000)">
                                        <mask id="mask-4" fill="white">
                                            <use xlink:href="#path-3"></use>
                                        </mask>
                                        <g id="Clip-13"></g>
                                        <path d="M7.79770423,15.7063979 L9.79492254,15.7063979 L9.94182394,14.4128768 C9.97904225,14.0791444 10.2080211,13.7971725 10.5264718,13.6906937 C11.1845704,13.471081 11.7827746,13.1331585 12.3048169,12.6870317 C12.554993,12.4723486 12.9047465,12.4183697 13.2071761,12.54925 L14.4533732,13.0823838 L15.4348521,11.4206232 L14.3712958,10.6567852 C14.0952394,10.4583697 13.960662,10.1169965 14.0274577,9.78326408 C14.0952394,9.44879225 14.129007,9.11333451 14.129007,8.78551761 C14.129007,8.4577007 14.0952394,8.12224296 14.0274577,7.78777113 C13.9648521,7.47696127 14.077493,7.15653873 14.3207676,6.95319366 L15.4459437,6.01287676 L14.4743239,4.47953169 L13.2071761,5.02178521 C12.9047465,5.15365141 12.554993,5.09942606 12.3048169,4.88400352 C11.7827746,4.43812324 11.1845704,4.1002007 10.5264718,3.88058803 C10.2080211,3.77386268 9.97904225,3.49189085 9.94182394,3.15815845 L9.79492254,1.86463732 L7.79770423,1.86463732 L7.65055634,3.15815845 C7.61333803,3.49189085 7.38460563,3.77386268 7.06516901,3.88058803 C6.40879577,4.1002007 5.81059155,4.43812324 5.28756338,4.88400352 C5.0376338,5.09942606 4.68960563,5.15365141 4.3854507,5.02178521 L3.11805634,4.47953169 L2.1466831,6.01287676 L3.27185915,6.95319366 C3.5151338,7.15653873 3.62752817,7.47696127 3.56516901,7.78777113 C3.49738732,8.12224296 3.46361972,8.4577007 3.46361972,8.78551761 C3.46361972,9.11333451 3.49738732,9.44879225 3.56516901,9.78326408 C3.63171831,10.1169965 3.49738732,10.4583697 3.22133099,10.6567852 L2.15752817,11.4206232 L3.13925352,13.0823838 L4.3854507,12.54925 C4.68960563,12.4183697 5.0376338,12.4723486 5.28756338,12.6870317 C5.80985211,13.1331585 6.40780986,13.471081 7.06615493,13.6906937 C7.38460563,13.7971725 7.61333803,14.0791444 7.65055634,14.4128768 L7.79770423,15.7063979 Z M10.5668944,17.4366796 L7.02548592,17.4366796 C6.58527465,17.4366796 6.21530986,17.1063979 6.16626056,16.6696373 L5.99126056,15.1328415 C5.49559155,14.9223486 5.02826761,14.6581232 4.59397183,14.3418908 L3.12150704,14.9721373 C2.72097887,15.1419613 2.25809155,14.9908697 2.03601408,14.6174542 L0.26506338,11.6200246 C0.0378098592,11.2337923 0.141823944,10.7388627 0.505873239,10.4768556 L1.7791831,9.56192606 C1.74861972,9.30189085 1.73333803,9.04234859 1.73333803,8.78551761 C1.73333803,8.51439085 1.75034507,8.23981338 1.78485211,7.96523592 L0.455098592,6.85410915 C0.122352113,6.57558803 0.0471760563,6.09396831 0.279605634,5.72720775 L2.05030986,2.93090493 C2.27830282,2.57178521 2.73280986,2.43252465 3.12150704,2.59889789 L4.59397183,3.22914437 C5.02826761,2.91315845 5.49559155,2.64868662 5.99126056,2.43819366 L6.16626056,0.901644366 C6.21530986,0.464883803 6.58527465,0.134355634 7.02548592,0.134355634 L10.5668944,0.134355634 C11.0071056,0.134355634 11.3770704,0.464883803 11.4263662,0.901644366 L11.6011197,2.43819366 C12.0970352,2.64868662 12.5641127,2.91315845 12.9984085,3.22914437 L14.4708732,2.59889789 C14.8603099,2.43252465 15.3150634,2.57178521 15.5423169,2.93090493 L17.3130211,5.72720775 C17.5454507,6.09396831 17.4700282,6.57558803 17.1375282,6.85410915 L15.8075282,7.96523592 C15.8422817,8.23981338 15.8590423,8.51439085 15.8590423,8.78551761 C15.8590423,9.04234859 15.844007,9.30189085 15.8134437,9.56192606 L17.0867535,10.4768556 C17.4508028,10.7388627 17.5545704,11.2337923 17.3273169,11.6200246 L15.5566127,14.6174542 C15.3345352,14.9918556 14.8696761,15.1419613 14.4708732,14.9721373 L12.9984085,14.3418908 C12.5641127,14.6581232 12.0970352,14.9223486 11.6011197,15.1328415 L11.4263662,16.6696373 C11.3770704,17.1063979 11.0071056,17.4366796 10.5668944,17.4366796 L10.5668944,17.4366796 Z" id="Fill-12" fill="#220D3A" mask="url(#mask-4)"></path>
                                    </g>
                                    <path d="M15.8333333,6.66672602 C14.9145299,6.66672602 14.1666667,7.41461591 14.1666667,8.33345205 C14.1666667,9.25228819 14.9145299,10.0001781 15.8333333,10.0001781 C16.7521368,10.0001781 17.5,9.25228819 17.5,8.33345205 C17.5,7.41461591 16.7521368,6.66672602 15.8333333,6.66672602 M15.8333333,11.6666667 C13.9950142,11.6666667 12.5,10.1718366 12.5,8.33345205 C12.5,6.49506749 13.9950142,5 15.8333333,5 C17.6716524,5 19.1666667,6.49506749 19.1666667,8.33345205 C19.1666667,10.1718366 17.6716524,11.6666667 15.8333333,11.6666667" id="Fill-15" fill="#220D3A"></path>
                                    <path d="M26.8403475,30.2382462 L35.2337359,15.4965463 C35.5711792,14.9032931 35.4981198,14.1722037 35.0736901,13.8996803 C34.649717,13.6295793 34.0049674,13.8989535 33.6670675,14.4934179 L25.2764188,29.2307574 L24.825505,31.9443639 L26.8403475,30.2382462 Z M34.7035983,12.5 C35.0522289,12.5 35.3958366,12.5937481 35.7045127,12.7909339 C36.7125047,13.4374805 36.9700392,14.9507728 36.2787143,16.1656216 L27.8289331,31.0071256 C27.7917184,31.0722889 27.7437732,31.1306695 27.6871521,31.1783914 L24.3243629,34.025716 C24.1261892,34.1931059 23.8503898,34.2132121 23.6318964,34.0763448 C23.4138596,33.9385085 23.2985627,33.6722834 23.3426267,33.4067851 L24.094454,28.8867723 C24.1072394,28.8082855 24.1339518,28.7327057 24.1729929,28.6643932 L32.6223175,13.8238582 C33.1022267,12.9808524 33.9145564,12.5 34.7035983,12.5 L34.7035983,12.5 Z" id="Fill-17" fill="#4086FF"></path>
                                    <path d="M26.364837,25.8333333 C26.458396,25.8333333 26.5530479,25.8582578 26.638956,25.9116996 L28.9101651,27.3209448 C29.161113,27.4767791 29.2417748,27.8122495 29.0900694,28.0698028 C28.938364,28.327356 28.6120006,28.4106623 28.3610528,28.2546034 L26.089625,26.8455827 C25.8388958,26.6897484 25.758234,26.3547271 25.9099394,26.0971739 C26.009619,25.9271932 26.1849328,25.8333333 26.364837,25.8333333" id="Fill-19" fill="#4086FF"></path>
                                    <path d="M32.1981088,16.6666667 C32.2914398,16.6666667 32.3860824,16.6918144 32.4722005,16.7450288 L34.743621,18.1537518 C34.9945439,18.3098026 35.0749792,18.6448065 34.9235074,18.9025709 C34.7722542,19.1603353 34.4470162,19.2443109 34.1945633,19.087811 L31.9231427,17.6790881 C31.6722198,17.5230373 31.591566,17.1880334 31.7432564,16.930269 C31.8427075,16.7602971 32.0182224,16.6666667 32.1981088,16.6666667" id="Fill-21" fill="#4086FF"></path>
                                </g>
                            </g>
                        </g>
                    </g>
                </g>
            </g>
        </g>
    </g>
</svg>