<?xml version="1.0" encoding="UTF-8"?>
<svg width="40px" height="41px" viewBox="0 0 40 41" version="1.1" xmlns="http://www.w3.org/2000/svg" xmlns:xlink="http://www.w3.org/1999/xlink">
    <title>Documentation</title>
    <defs>
        <polygon id="path-1" points="0 0.0527388535 39.8394904 0.0527388535 39.8394904 31.5923567 0 31.5923567"></polygon>
        <polygon id="path-3" points="0 39.8394904 39.8394904 39.8394904 39.8394904 0 0 0"></polygon>
    </defs>
    <g id="Symbols" stroke="none" stroke-width="1" fill="none" fill-rule="evenodd">
        <g id="Dropdown-menu/Products" transform="translate(-16.000000, -210.000000)">
            <g id="Group-2" transform="translate(8.000000, 198.000000)">
                <g id="Menu-:-Account">
                    <g id="ROW">
                        <g id="↳-Body-1-Color-&amp;-Style" transform="translate(8.000000, 9.000000)">
                            <g id="Documentation" transform="translate(0.000000, 3.000000)">
                                <g id="Group-3" transform="translate(0.000000, 8.247134)">
                                    <mask id="mask-2" fill="white">
                                        <use xlink:href="#path-1"></use>
                                    </mask>
                                    <g id="Clip-2"></g>
                                    <path d="M19.9196433,31.5923567 C19.2243567,31.5923567 18.5644841,31.3133758 18.1107261,30.826242 C17.7295796,30.4180892 17.0156943,29.9322293 15.7698344,29.9322293 L0.829961783,29.9322293 C0.37110828,29.9322293 -0.000101910828,29.5610191 -0.000101910828,29.1024204 L-0.000101910828,0.882802548 C-0.000101910828,0.423949045 0.37110828,0.0527388535 0.829961783,0.0527388535 L4.14996178,0.0527388535 L4.14996178,1.71286624 L1.66002548,1.71286624 L1.66002548,28.2723567 L15.7698344,28.2723567 C17.7094522,28.2723567 18.829707,29.1633121 19.3239745,29.6940127 C19.5940382,29.9842038 20.2439745,29.9842038 20.5163312,29.6932484 C21.0098344,29.1633121 22.1300892,28.2723567 24.069707,28.2723567 L38.1795159,28.2723567 L38.1795159,12.5026752 L39.8396433,12.5026752 L39.8396433,29.1024204 C39.8396433,29.5610191 39.4684331,29.9322293 39.0095796,29.9322293 L24.069707,29.9322293 C22.8238471,29.9322293 22.1099618,30.4180892 21.7295796,30.8254777 C21.2814268,31.306242 20.6044841,31.5923567 19.9196433,31.5923567" id="Fill-1" fill="#220D3A" mask="url(#mask-2)"></path>
                                </g>
                                <mask id="mask-4" fill="white">
                                    <use xlink:href="#path-3"></use>
                                </mask>
                                <g id="Clip-5"></g>
                                <polygon id="Fill-4" fill="#220D3A" mask="url(#mask-4)" points="19.0896815 34.8596178 20.7495541 34.8596178 20.7495541 23.2397452 19.0896815 23.2397452"></polygon>
                                <path d="M19.9196433,35.6886624 C19.7925096,35.6886624 19.6661401,35.6603822 19.5494522,35.6028025 C19.5346752,35.5946497 18.0360764,34.8596178 16.5998981,34.8596178 L4.14996178,34.8596178 C3.69110828,34.8596178 3.31989809,34.4884076 3.31989809,34.0295541 L3.31989809,5.80993631 C3.31989809,5.4955414 3.49747771,5.20840764 3.77875159,5.06751592 C10.6602803,1.62828025 19.8177325,4.88993631 20.203465,5.03031847 L19.6370955,6.59057325 C19.5502166,6.55796178 11.1774777,3.58496815 4.98002548,6.33605096 L4.98002548,33.1994904 L16.5998981,33.1994904 C17.9606624,33.1994904 19.2923822,33.6835669 19.9196433,33.9492994 C20.5471592,33.6835669 21.8786242,33.1994904 23.2396433,33.1994904 L34.8597707,33.1994904 L34.8597707,23.2397452 L36.5193885,23.2397452 L36.5193885,34.0295541 C36.5193885,34.4884076 36.1481783,34.8596178 35.6895796,34.8596178 L23.2396433,34.8596178 C21.803465,34.8596178 20.3048662,35.5946497 20.2900892,35.6028025 C20.1734013,35.6603822 20.0470318,35.6886624 19.9196433,35.6886624" id="Fill-6" fill="#220D3A" mask="url(#mask-4)"></path>
                                <path d="M29.8795669,14.9397707 L28.2194395,14.9397707 L28.2194395,9.95989809 L27.3898854,9.95989809 L27.3898854,8.2997707 L29.0495032,8.2997707 C29.5083567,8.2997707 29.8795669,8.67123567 29.8795669,9.12983439 L29.8795669,14.9397707 Z" id="Fill-7" fill="#4086FF" mask="url(#mask-4)"></path>
                                <path d="M29.0495541,6.63984713 L28.2194904,6.63984713 C27.7608917,6.63984713 27.3896815,6.26863694 27.3896815,5.81003822 C27.3896815,5.35118471 27.7608917,4.97997452 28.2194904,4.97997452 L29.0495541,4.97997452 C29.5084076,4.97997452 29.8796178,5.35118471 29.8796178,5.81003822 C29.8796178,6.26863694 29.5084076,6.63984713 29.0495541,6.63984713" id="Fill-8" fill="#4086FF" mask="url(#mask-4)"></path>
                                <path d="M24.5090955,18.8628025 C24.9282038,18.8628025 25.2838726,18.9073885 25.5383949,19.0136306 C26.5896051,19.4521019 27.8145732,19.9196178 29.0494777,19.9196178 C34.0838726,19.9196178 38.179414,15.8240764 38.179414,10.7896815 C38.179414,5.7555414 34.0838726,1.66 29.0494777,1.66 C24.0155924,1.66 19.9195414,5.7555414 19.9195414,10.7896815 C19.9195414,11.9336306 20.1297325,12.9231847 20.621707,14.1 C21.0683312,15.168535 20.6110064,17.8082803 20.2211975,19.58 C21.5707516,19.2340127 23.3022166,18.8628025 24.5090955,18.8628025 M29.0494777,21.5797452 C27.5080764,21.5797452 26.0983949,21.0454777 24.8996688,20.5453503 C24.3824713,20.3631847 21.828586,20.8194904 19.3215796,21.5466242 C19.0313885,21.6309554 18.7259108,21.553758 18.5118981,21.3456051 C18.2978854,21.1387261 18.2120255,20.8324841 18.2856561,20.5438217 C18.8790318,18.2307006 19.3434904,15.3466242 19.0897325,14.7402548 C18.5078217,13.3478981 18.2596688,12.1670064 18.2596688,10.7896815 C18.2596688,4.84038217 23.1004331,-0.000127388535 29.0494777,-0.000127388535 C34.9990318,-0.000127388535 39.8395414,4.84038217 39.8395414,10.7896815 C39.8395414,16.7392357 34.9990318,21.5797452 29.0494777,21.5797452" id="Fill-9" fill="#4086FF" mask="url(#mask-4)"></path>
                                <polygon id="Fill-10" fill="#4086FF" mask="url(#mask-4)" points="27.3898089 15.7696815 30.7095541 15.7696815 30.7095541 14.1095541 27.3898089 14.1095541"></polygon>
                            </g>
                        </g>
                    </g>
                </g>
            </g>
        </g>
    </g>
</svg>