<?xml version="1.0" encoding="UTF-8"?>
<svg width="36px" height="41px" viewBox="0 0 36 41" version="1.1" xmlns="http://www.w3.org/2000/svg" xmlns:xlink="http://www.w3.org/1999/xlink">
    <title>Discussion 1</title>
    <defs>
        <polygon id="path-1" points="0.0748036216 0.136694611 21.9930539 0.136694611 21.9930539 18.6825629 0.0748036216 18.6825629"></polygon>
        <polygon id="path-3" points="0 0.139185629 21.9181066 0.139185629 21.9181066 18.6852934 0 18.6852934"></polygon>
        <polygon id="path-5" points="0.121868263 0.204838323 13.6098204 0.204838323 13.6098204 6.94879042 0.121868263 6.94879042"></polygon>
    </defs>
    <g id="Symbols" stroke="none" stroke-width="1" fill="none" fill-rule="evenodd">
        <g id="Dropdown-menu/Community/3" transform="translate(-336.000000, -62.000000)">
            <g id="Group" transform="translate(0.000000, 16.000000)">
                <g id="Menu" transform="translate(0.000000, 34.000000)">
                    <g id="AI-Marketplace-Copy-2" transform="translate(318.000000, 2.000000)">
                        <g id="ROW">
                            <g id="↳-Body-1-Color-&amp;-Style" transform="translate(18.000000, 10.000000)">
                                <g id="Discussion-1" transform="translate(-0.000000, 0.000000)">
                                    <g id="Group-3" transform="translate(13.413174, 21.178204)">
                                        <mask id="mask-2" fill="white">
                                            <use xlink:href="#path-1"></use>
                                        </mask>
                                        <g id="Clip-2"></g>
                                        <path d="M2.67192814,10.2526228 L4.94809581,13.0976527 C5.06785629,13.2475928 5.13276647,13.4327425 5.13276647,13.6245988 L5.13276647,16.1537006 C5.13276647,16.6186108 5.51120958,16.9965749 5.97588024,16.9965749 L19.464024,16.9965749 C19.9289341,16.9965749 20.3071377,16.6186108 20.3071377,16.1537006 L20.3071377,2.66555689 C20.3071377,2.20088623 19.9289341,1.82268263 19.464024,1.82268263 L5.97588024,1.82268263 C5.51120958,1.82268263 5.13276647,2.20088623 5.13276647,2.66555689 L5.13276647,9.40950898 C5.13276647,9.87513772 4.75552096,10.2526228 4.28989222,10.2526228 L2.67192814,10.2526228 Z M19.464024,18.6825629 L5.97588024,18.6825629 C4.58138922,18.6825629 3.44701796,17.5481916 3.44701796,16.1537006 L3.44701796,13.9201677 L0.259712575,9.93621557 C0.0570778443,9.68328144 0.0175568862,9.33645509 0.158155689,9.04447904 C0.29851497,8.75202395 0.594083832,8.56663473 0.917916168,8.56663473 L3.44701796,8.56663473 L3.44701796,2.66555689 C3.44701796,1.27082635 4.58138922,0.136694611 5.97588024,0.136694611 L19.464024,0.136694611 C20.8587545,0.136694611 21.9931257,1.27082635 21.9931257,2.66555689 L21.9931257,16.1537006 C21.9931257,17.5481916 20.8587545,18.6825629 19.464024,18.6825629 L19.464024,18.6825629 Z" id="Fill-1" fill="#4086FF" mask="url(#mask-2)"></path>
                                    </g>
                                    <path d="M12.6451497,39.8608383 C12.179521,39.8608383 11.8020359,39.4838323 11.8020359,39.0177246 L11.8020359,36.4888623 C11.8020359,35.245509 9.1891018,34.8028743 6.74407186,34.8028743 C4.29904192,34.8028743 1.68610778,35.245509 1.68610778,36.4888623 L1.68610778,39.0177246 C1.68610778,39.4838323 1.30862275,39.8608383 0.842994012,39.8608383 C0.377365269,39.8608383 0.000119760479,39.4838323 0.000119760479,39.0177246 L0.000119760479,36.4888623 C0.000119760479,34.9501796 1.16994012,33.1168862 6.74407186,33.1168862 C12.3182036,33.1168862 13.4882635,34.9501796 13.4882635,36.4888623 L13.4882635,39.0177246 C13.4882635,39.4838323 13.1105389,39.8608383 12.6451497,39.8608383" id="Fill-4" fill="#220D3A"></path>
                                    <path d="M6.74402395,23.8438084 C5.34953293,23.8438084 4.21492216,24.9242874 4.21492216,26.2521916 L4.21492216,27.336024 C4.21492216,28.6641677 5.34953293,29.7448862 6.74402395,29.7448862 C8.13875449,29.7448862 9.27312575,28.6641677 9.27312575,27.336024 L9.27312575,26.2521916 C9.27312575,24.9242874 8.13875449,23.8438084 6.74402395,23.8438084 M6.74402395,31.4308743 C4.4199521,31.4308743 2.52893413,29.5937485 2.52893413,27.336024 L2.52893413,26.2521916 C2.52893413,23.9944671 4.4199521,22.1578204 6.74402395,22.1578204 C9.06809581,22.1578204 10.9591138,23.9944671 10.9591138,26.2521916 L10.9591138,27.336024 C10.9591138,29.5937485 9.06809581,31.4308743 6.74402395,31.4308743" id="Fill-6" fill="#434343"></path>
                                    <path d="M6.74402395,23.8438084 C5.34953293,23.8438084 4.21492216,24.9242874 4.21492216,26.2521916 L4.21492216,27.336024 C4.21492216,28.6641677 5.34953293,29.7448862 6.74402395,29.7448862 C8.13875449,29.7448862 9.27312575,28.6641677 9.27312575,27.336024 L9.27312575,26.2521916 C9.27312575,24.9242874 8.13875449,23.8438084 6.74402395,23.8438084 M6.74402395,31.4308743 C4.4199521,31.4308743 2.52893413,29.5937485 2.52893413,27.336024 L2.52893413,26.2521916 C2.52893413,23.9944671 4.4199521,22.1578204 6.74402395,22.1578204 C9.06809581,22.1578204 10.9591138,23.9944671 10.9591138,26.2521916 L10.9591138,27.336024 C10.9591138,29.5937485 9.06809581,31.4308743 6.74402395,31.4308743" id="Fill-8" fill="#220D3A"></path>
                                    <path d="M26.1332695,35.6458204 C25.6676407,35.6458204 25.2901557,35.2688144 25.2901557,34.8027066 L25.2901557,30.5878563 C24.8245269,30.5878563 24.4472814,30.2103713 24.4472814,29.7447425 C24.4472814,29.2791138 24.8245269,28.9018683 25.2901557,28.9018683 L26.1332695,28.9018683 C26.5986587,28.9018683 26.9763832,29.2791138 26.9763832,29.7447425 L26.9763832,34.8027066 C26.9763832,35.2688144 26.5986587,35.6458204 26.1332695,35.6458204" id="Fill-10" fill="#4086FF"></path>
                                    <path d="M26.9762874,35.6458204 L25.2902994,35.6458204 C24.8246707,35.6458204 24.4471856,35.2688144 24.4471856,34.8027066 C24.4471856,34.3368383 24.8246707,33.9598323 25.2902994,33.9598323 L26.9762874,33.9598323 C27.4416766,33.9598323 27.8194012,34.3368383 27.8194012,34.8027066 C27.8194012,35.2688144 27.4416766,35.6458204 26.9762874,35.6458204" id="Fill-12" fill="#4086FF"></path>
                                    <path d="M26.1332695,27.2158084 L25.2901557,27.2158084 C24.8245269,27.2158084 24.4472814,26.8383234 24.4472814,26.3726946 C24.4472814,25.9070659 24.8245269,25.5298204 25.2901557,25.5298204 L26.1332695,25.5298204 C26.5986587,25.5298204 26.9763832,25.9070659 26.9763832,26.3726946 C26.9763832,26.8383234 26.5986587,27.2158084 26.1332695,27.2158084" id="Fill-14" fill="#4086FF"></path>
                                    <g id="Group-18" transform="translate(0.000000, 0.100359)">
                                        <mask id="mask-4" fill="white">
                                            <use xlink:href="#path-3"></use>
                                        </mask>
                                        <g id="Clip-17"></g>
                                        <path d="M2.52900599,1.82517365 C2.06433533,1.82517365 1.68589222,2.20361677 1.68589222,2.66828743 L1.68589222,16.1564311 C1.68589222,16.6208623 2.06433533,16.9993054 2.52900599,16.9993054 L16.0171497,16.9993054 C16.4818204,16.9993054 16.8602635,16.6208623 16.8602635,16.1564311 L16.8602635,13.6273293 C16.8602635,13.4359521 16.9251737,13.2503234 17.0449341,13.1008623 L19.3211018,10.2553533 L17.7031377,10.2553533 C17.237509,10.2553533 16.8602635,9.87786826 16.8602635,9.41223952 L16.8602635,2.66828743 C16.8602635,2.20361677 16.4818204,1.82517365 16.0171497,1.82517365 L2.52900599,1.82517365 Z M16.0171497,18.6852934 L2.52900599,18.6852934 C1.13451497,18.6852934 -9.58083832e-05,17.5509222 -9.58083832e-05,16.1564311 L-9.58083832e-05,2.66828743 C-9.58083832e-05,1.27355689 1.13451497,0.139185629 2.52900599,0.139185629 L16.0171497,0.139185629 C17.4118802,0.139185629 18.546012,1.27355689 18.546012,2.66828743 L18.546012,8.56912575 L21.0753533,8.56912575 C21.3989461,8.56912575 21.6947545,8.75499401 21.8351138,9.04720958 C21.9752335,9.33894611 21.9357126,9.68601198 21.7333174,9.93870659 L18.546012,13.9228982 L18.546012,16.1564311 C18.546012,17.5509222 17.4118802,18.6852934 16.0171497,18.6852934 L16.0171497,18.6852934 Z" id="Fill-16" fill="#4086FF" mask="url(#mask-4)"></path>
                                    </g>
                                    <g id="Group-21" transform="translate(21.796407, 11.836886)">
                                        <mask id="mask-6" fill="white">
                                            <use xlink:href="#path-5"></use>
                                        </mask>
                                        <g id="Clip-20"></g>
                                        <path d="M12.7668982,6.94879042 C12.301509,6.94879042 11.9237844,6.57130539 11.9237844,6.10567665 L11.9237844,3.57681437 C11.9237844,2.3337006 9.3108503,1.89082635 6.86582036,1.89082635 C4.42079042,1.89082635 1.80785629,2.3337006 1.80785629,3.57681437 L1.80785629,6.10567665 C1.80785629,6.57130539 1.43037126,6.94879042 0.964982036,6.94879042 C0.499113772,6.94879042 0.121868263,6.57130539 0.121868263,6.10567665 L0.121868263,3.57681437 C0.121868263,2.03861078 1.29168862,0.204838323 6.86582036,0.204838323 C12.4401916,0.204838323 13.610012,2.03861078 13.610012,3.57681437 L13.610012,6.10567665 C13.610012,6.57130539 13.2322874,6.94879042 12.7668982,6.94879042" id="Fill-19" fill="#220D3A" mask="url(#mask-6)"></path>
                                    </g>
                                    <path d="M28.6622754,2.76852695 C27.2677844,2.76852695 26.1331737,3.84900599 26.1331737,5.17691018 L26.1331737,6.26074251 C26.1331737,7.58912575 27.2677844,8.66960479 28.6622754,8.66960479 C30.0567665,8.66960479 31.1913772,7.58912575 31.1913772,6.26074251 L31.1913772,5.17691018 C31.1913772,3.84900599 30.0567665,2.76852695 28.6622754,2.76852695 M28.6622754,10.3555928 C26.3382036,10.3555928 24.4471856,8.51846707 24.4471856,6.26074251 L24.4471856,5.17691018 C24.4471856,2.91918563 26.3382036,1.08253892 28.6622754,1.08253892 C30.9861078,1.08253892 32.8773653,2.91918563 32.8773653,5.17691018 L32.8773653,6.26074251 C32.8773653,8.51846707 30.9861078,10.3555928 28.6622754,10.3555928" id="Fill-22" fill="#434343"></path>
                                    <path d="M28.6622754,2.76852695 C27.2677844,2.76852695 26.1331737,3.84900599 26.1331737,5.17691018 L26.1331737,6.26074251 C26.1331737,7.58912575 27.2677844,8.66960479 28.6622754,8.66960479 C30.0567665,8.66960479 31.1913772,7.58912575 31.1913772,6.26074251 L31.1913772,5.17691018 C31.1913772,3.84900599 30.0567665,2.76852695 28.6622754,2.76852695 M28.6622754,10.3555928 C26.3382036,10.3555928 24.4471856,8.51846707 24.4471856,6.26074251 L24.4471856,5.17691018 C24.4471856,2.91918563 26.3382036,1.08253892 28.6622754,1.08253892 C30.9861078,1.08253892 32.8773653,2.91918563 32.8773653,5.17691018 L32.8773653,6.26074251 C32.8773653,8.51846707 30.9861078,10.3555928 28.6622754,10.3555928" id="Fill-24" fill="#220D3A"></path>
                                    <path d="M9.27348503,12.0408623 C9.20809581,12.0408623 9.14126946,12.0329581 9.07468263,12.0169102 C8.62318563,11.9074491 8.34486228,11.4537964 8.45360479,11.0018204 C8.48641916,10.8648144 8.79588024,9.63990419 9.5199521,8.91631138 C9.75108982,8.68517365 9.95803593,8.49044311 10.1417485,8.3177485 C10.8665389,7.63463473 10.9592335,7.5268503 10.9592335,6.98361677 C10.9592335,6.40038323 10.6066587,5.29762874 9.27300599,5.29762874 C7.93935329,5.29762874 7.58701796,6.40038323 7.58701796,6.98361677 C7.58701796,7.44924551 7.20953293,7.82649102 6.74390419,7.82649102 C6.27851497,7.82649102 5.90102994,7.44924551 5.90102994,6.98361677 C5.90102994,5.34912575 7.08282635,3.61164072 9.27300599,3.61164072 C11.4634251,3.61164072 12.6452216,5.34912575 12.6452216,6.98361677 C12.6452216,8.27607186 12.0799521,8.80828743 11.2974371,9.54529341 C11.124503,9.70768862 10.930012,9.89116168 10.7120479,10.1086467 C10.4186347,10.4020599 10.1762395,11.054515 10.0921677,11.3970299 C9.99779641,11.7821796 9.65288623,12.0408623 9.27348503,12.0408623" id="Fill-26" fill="#4086FF"></path>
                                    <path d="M9.27300599,15.4123832 C9.05360479,15.4123832 8.83468263,15.3196886 8.67444311,15.1683114 C8.64067066,15.1259162 8.59875449,15.084 8.57336527,15.0416048 C8.53959281,14.9908263 8.51444311,14.9407665 8.49767665,14.889988 C8.4720479,14.8394491 8.45504192,14.7886707 8.4468982,14.7381317 C8.43827545,14.6792096 8.42989222,14.6286707 8.42989222,14.5692695 C8.42989222,14.4598084 8.45504192,14.3503473 8.49767665,14.2492695 C8.53959281,14.1479521 8.59875449,14.0552575 8.67444311,13.9709461 C8.91037126,13.735018 9.29001198,13.6674731 9.59324551,13.7939401 C9.70270659,13.8363353 9.78701796,13.8952575 9.87156886,13.9709461 C9.94725749,14.0552575 10.0066587,14.1479521 10.0485749,14.2492695 C10.0909701,14.3503473 10.1161198,14.4598084 10.1161198,14.5692695 C10.1161198,14.6286707 10.107497,14.6792096 10.0991138,14.7381317 C10.0909701,14.7886707 10.0742036,14.8394491 10.0485749,14.889988 C10.0315689,14.9407665 10.0066587,14.9908263 9.97288623,15.0416048 C9.94725749,15.084 9.90534132,15.1259162 9.87156886,15.1683114 C9.78701796,15.244 9.70270659,15.3029222 9.59324551,15.3453174 C9.49216766,15.3874731 9.38270659,15.4123832 9.27300599,15.4123832" id="Fill-28" fill="#4086FF"></path>
                                </g>
                            </g>
                        </g>
                    </g>
                </g>
            </g>
        </g>
    </g>
</svg>