<?xml version="1.0" encoding="UTF-8"?>
<svg width="40px" height="36px" viewBox="0 0 40 36" version="1.1" xmlns="http://www.w3.org/2000/svg" xmlns:xlink="http://www.w3.org/1999/xlink">
    <title>General 2</title>
    <defs>
        <polygon id="path-1" points="7.40740741e-05 0.13308642 39.8718519 0.13308642 39.8718519 34.5679012 7.40740741e-05 34.5679012"></polygon>
        <polygon id="path-3" points="0 34.6817284 39.8718519 34.6817284 39.8718519 0.24691358 0 0.24691358"></polygon>
    </defs>
    <g id="Symbols" stroke="none" stroke-width="1" fill="none" fill-rule="evenodd">
        <g id="Dropdown-menu/Community/3" transform="translate(-16.000000, -66.000000)">
            <g id="Group" transform="translate(0.000000, 16.000000)">
                <g id="Menu" transform="translate(0.000000, 34.000000)">
                    <g id="AI-Marketplace" transform="translate(0.000000, 2.000000)">
                        <g id="ROW">
                            <g id="↳-Body-1-Color-&amp;-Style" transform="translate(16.000000, 11.000000)">
                                <g id="General-2" transform="translate(0.000000, 3.000000)">
                                    <g id="Group-3" transform="translate(0.000000, 0.113827)">
                                        <mask id="mask-2" fill="white">
                                            <use xlink:href="#path-1"></use>
                                        </mask>
                                        <g id="Clip-2"></g>
                                        <path d="M1.91587654,1.9454321 C1.85883951,1.9454321 1.81241975,1.99185185 1.81241975,2.04888889 L1.81241975,32.6520988 C1.81241975,32.7091358 1.85883951,32.7555556 1.91587654,32.7555556 L37.9558765,32.7555556 C38.0129136,32.7555556 38.0595802,32.7091358 38.0595802,32.6520988 L38.0595802,2.04888889 C38.0595802,1.99185185 38.0129136,1.9454321 37.9558765,1.9454321 L1.91587654,1.9454321 Z M37.9558765,34.5679012 L1.91587654,34.5679012 C0.859333333,34.5679012 7.40740741e-05,33.708642 7.40740741e-05,32.6520988 L7.40740741e-05,2.04888889 C7.40740741e-05,0.992345679 0.859333333,0.13308642 1.91587654,0.13308642 L37.9558765,0.13308642 C39.0124198,0.13308642 39.8719259,0.992345679 39.8719259,2.04888889 L39.8719259,32.6520988 C39.8719259,33.708642 39.0124198,34.5679012 37.9558765,34.5679012 L37.9558765,34.5679012 Z" id="Fill-1" fill="#220D3A" mask="url(#mask-2)"></path>
                                    </g>
                                    <path d="M38.965679,7.49641975 L0.90617284,7.49641975 C0.405679012,7.49641975 0,7.09049383 0,6.59024691 C0,6.08975309 0.405679012,5.68407407 0.90617284,5.68407407 L38.965679,5.68407407 C39.4659259,5.68407407 39.8718519,6.08975309 39.8718519,6.59024691 C39.8718519,7.09049383 39.4659259,7.49641975 38.965679,7.49641975" id="Fill-4" fill="#220D3A"></path>
                                    <mask id="mask-4" fill="white">
                                        <use xlink:href="#path-3"></use>
                                    </mask>
                                    <g id="Clip-7"></g>
                                    <g id="Group-20" mask="url(#mask-4)" fill="#4086FF">
                                        <g transform="translate(15.666667, 11.666667)">
                                            <path d="M8.70716213,11.5523333 C8.61149546,10.5736667 8.1058288,9.574 7.35549546,8.87866667 C6.6198288,8.186 5.7458288,7.738 4.9748288,7.34333333 L4.86216213,7.286 C4.10349546,6.90466667 3.3868288,6.54433333 2.85316213,6.10366667 C2.30349546,5.663 1.95916213,5.14 1.80016213,4.49966667 C1.62016213,3.84333333 1.6688288,3.168 1.94116213,2.54533333 C2.1848288,1.973 2.64549546,1.37633333 3.3498288,0.721666667 C3.48816213,0.593333333 3.5158288,0.386333333 3.41549546,0.23 C3.3368288,0.107333333 3.1948288,0.0363333333 3.04016213,0.0398646129 C2.97416213,0.043 2.91116213,0.0596666667 2.85449546,0.0896666667 C1.91116213,0.584666667 1.1818288,1.20833333 0.687828798,1.94166667 C0.145828798,2.729 -0.0928378691,3.76466667 0.0328287976,4.784 C0.0958287976,5.282 0.256495464,5.78433333 0.498162131,6.238 C0.736828798,6.675 1.08016213,7.1 1.49349546,7.46766667 C2.2348288,8.11033333 3.08249546,8.52366667 3.83049546,8.88833333 L4.00049546,8.971 C4.77716213,9.34233333 5.51049546,9.693 6.06816213,10.137 C6.6208288,10.5586667 6.98049546,11.1106667 7.13749546,11.7803333 C7.30716213,12.4653333 7.24416213,13.1616667 6.9558288,13.794 C6.6828288,14.3983333 6.19049546,15.0013333 5.4928288,15.5863333 C5.33216213,15.7203333 5.3018288,15.9476667 5.4228288,16.1153333 C5.50516213,16.229 5.63749546,16.2903333 5.77249546,16.2903333 C5.84949546,16.2903333 5.92749546,16.2703333 5.99716213,16.229 C6.93516213,15.6756667 7.61549546,15.0543333 8.07516213,14.3316667 C8.5888288,13.548 8.8188288,12.535 8.70716213,11.5523333" id="Fill-16"></path>
                                            <path d="M4.83216213,0.648666667 C5.16016213,0.98 5.57749546,1.422 5.8918288,1.89733333 C6.6198288,3.13333333 6.57249546,4.49333333 5.75116213,5.94 L5.7158288,6.00166667 C5.57849546,6.24633333 5.58916213,6.55533333 5.7438288,6.788 C5.85116213,6.94966667 6.02949546,7.063 6.23316213,7.099 C6.27849546,7.107 6.3238288,7.111 6.3688288,7.111 C6.5228288,7.111 6.67216213,7.064 6.7968288,6.97233333 C7.82749546,6.12266667 7.93749546,4.36933333 7.94916213,4.02266667 C7.95349546,3.685 7.90916213,3.32233333 7.81549546,2.939 C7.7158288,2.58066667 7.57816213,2.24866667 7.40449546,1.948 C7.2088288,1.62733333 7.00749546,1.36133333 6.79049546,1.135 C6.35816213,0.687 5.8388288,0.316666667 5.24516213,0.0346666667 C5.19849546,0.0123333333 5.1478288,0.000666666667 5.0938288,9.00020799e-14 C5.0028288,0.00133333333 4.89116213,0.0426666667 4.82016213,0.12 C4.68549546,0.268 4.68716213,0.494 4.83249546,0.648333333 L4.83216213,0.648666667 Z" id="Fill-17"></path>
                                            <path d="M3.6996288,15.6729 C3.37229546,15.3362333 2.95529546,14.8869 2.63996213,14.4012333 C1.91096213,13.1409 1.9586288,11.7539 2.78096213,10.2789 L2.8166288,10.2162333 C2.95329546,9.9689 2.94229546,9.65723333 2.78929546,9.4219 C2.6586288,9.22156667 2.42129546,9.09556667 2.1696288,9.0929 C2.0036288,9.09023333 1.8626288,9.13756667 1.73396213,9.2349 C0.703628798,10.0995667 0.593962131,11.8822333 0.582295464,12.2342333 C0.577628798,12.5762333 0.621628798,12.9449 0.714962131,13.3362333 C0.814962131,13.7009 0.952295464,14.0385667 1.12529546,14.3435667 C1.3206288,14.6692333 1.5216288,14.9395667 1.73896213,15.1705667 C2.17196213,15.6269 2.6916288,16.0039 3.28396213,16.2905667 C3.33396213,16.3145667 3.3876288,16.3269 3.44029546,16.3269 C3.5406288,16.3269 3.63896213,16.2842333 3.71096213,16.2035667 C3.84729546,16.0519 3.8426288,15.8195667 3.70829546,15.6819 L3.6996288,15.6729 Z" id="Fill-18"></path>
                                        </g>
                                    </g>
                                    <polygon id="Fill-6" fill="#220D3A" mask="url(#mask-4)" points="3.62469136 4.77777778 5.43703704 4.77777778 5.43703704 2.9654321 3.62469136 2.9654321"></polygon>
                                    <polygon id="Fill-8" fill="#220D3A" mask="url(#mask-4)" points="7.24938272 4.77777778 9.0617284 4.77777778 9.0617284 2.9654321 7.24938272 2.9654321"></polygon>
                                </g>
                            </g>
                        </g>
                    </g>
                </g>
            </g>
        </g>
    </g>
</svg>