<?xml version="1.0" encoding="UTF-8"?>
<svg width="40px" height="40px" viewBox="0 0 40 40" version="1.1" xmlns="http://www.w3.org/2000/svg" xmlns:xlink="http://www.w3.org/1999/xlink">
    <title>Group 15</title>
    <g id="Symbols" stroke="none" stroke-width="1" fill="none" fill-rule="evenodd">
        <g id="Dropdown-menu/Community/3" transform="translate(-333.000000, -128.000000)">
            <g id="Group" transform="translate(0.000000, 16.000000)">
                <g id="Menu" transform="translate(0.000000, 34.000000)">
                    <g id="AI-Marketplace-Copy-3" transform="translate(318.000000, 66.000000)">
                        <g id="ROW">
                            <g id="↳-Body-1-Color-&amp;-Style" transform="translate(15.000000, 11.000000)">
                                <g id="Group-15" transform="translate(0.000000, 1.000000)">
                                    <path d="M2.5,22.5 C2.04024096,22.5 1.66674699,22.8739759 1.66674699,23.333253 L1.66674699,28.333253 C1.66674699,28.7927711 2.04024096,29.166747 2.5,29.166747 L3.33349398,29.166747 C3.7939759,29.166747 4.16674699,29.539759 4.16674699,30 C4.16674699,34.9361446 5.10337349,37.479759 5.50626506,38.3443373 L8.83060241,38.333253 C8.33421687,36.7650602 7.5,33.5872289 7.5,30 C7.5,29.539759 7.87277108,29.166747 8.33349398,29.166747 L11.666747,29.166747 C16.3207229,29.166747 19.5525301,33.5881928 20.466506,35.0004819 L20.9872289,35.0004819 C21.2149398,33.7566265 21.666747,30.6831325 21.666747,25.833253 C21.666747,20.9838554 21.2149398,17.9106024 20.9872289,16.666506 L20.4648193,16.666506 C19.5515663,18.0790361 16.3207229,22.5 11.666747,22.5 L2.5,22.5 Z M8.83060241,40 L5.50144578,40 C4.85518072,40 4.26433735,39.6260241 3.99493976,39.0479518 C3.46843373,37.9166265 2.60409639,35.3857831 2.50891566,30.833253 L2.5,30.833253 C1.12144578,30.833253 0,29.7120482 0,28.333253 L0,23.333253 C0,21.9546988 1.12144578,20.833253 2.5,20.833253 L11.666747,20.833253 C16.1310843,20.833253 19.2455422,15.4739759 19.2766265,15.42 C19.4245783,15.1604819 19.7014458,15 20,15 L21.666747,15 C22.0491566,15 22.3821687,15.2604819 22.4749398,15.6310843 C22.5098795,15.7715663 23.333253,19.1409639 23.333253,25.833253 C23.333253,32.5255422 22.5098795,35.8951807 22.4749398,36.0356627 C22.3828916,36.4062651 22.0491566,36.666747 21.6674699,36.666747 L20.0016867,36.6674699 C19.7028916,36.6674699 19.4272289,36.5072289 19.2790361,36.2484337 C19.2472289,36.1942169 16.1156627,30.833253 11.666747,30.833253 L9.18216867,30.833253 C9.29518072,33.8520482 9.99180723,36.4783133 10.4207229,37.8380723 C10.5819277,38.346747 10.493253,38.8860241 10.1773494,39.3171084 C9.86409639,39.7448193 9.36048193,40 8.83060241,40 L8.83060241,40 Z" id="Fill-1" fill="#220D3A"></path>
                                    <path d="M22.5,30 C22.0395181,30 21.666747,29.626747 21.666747,29.166747 C21.666747,28.706506 22.0395181,28.333253 22.5,28.333253 C23.8785542,28.333253 25,27.2120482 25,25.833253 C25,24.4546988 23.8785542,23.333253 22.5,23.333253 C22.0395181,23.333253 21.666747,22.960241 21.666747,22.5 C21.666747,22.039759 22.0395181,21.666747 22.5,21.666747 C24.7973494,21.666747 26.666747,23.5359036 26.666747,25.833253 C26.666747,28.1306024 24.7973494,30 22.5,30" id="Fill-3" fill="#220D3A"></path>
                                    <path d="M10,30.833253 C9.53927711,30.833253 9.16674699,30.460241 9.16674699,30 L9.16674699,21.666747 C9.16674699,21.206506 9.53927711,20.833253 10,20.833253 C10.4607229,20.833253 10.833253,21.206506 10.833253,21.666747 L10.833253,30 C10.833253,30.460241 10.4607229,30.833253 10,30.833253" id="Fill-5" fill="#220D3A"></path>
                                    <path d="M30.833253,25 C30.7260241,25 30.6175904,24.9792771 30.5144578,24.9363855 C30.2026506,24.8074699 30,24.5033735 30,24.166747 L30,20 L26.666747,20 C26.2060241,20 25.833253,19.626988 25.833253,19.166747 C25.833253,18.706506 26.2060241,18.333253 26.666747,18.333253 L30.833253,18.333253 C31.2939759,18.333253 31.666747,18.706506 31.666747,19.166747 L31.666747,22.1549398 L35.2443373,18.5775904 C35.4004819,18.4212048 35.6120482,18.333253 35.833253,18.333253 L37.5,18.333253 C37.959759,18.333253 38.333253,17.9592771 38.333253,17.5 L38.333253,2.5 C38.333253,2.04072289 37.959759,1.66674699 37.5,1.66674699 L15,1.66674699 C14.540241,1.66674699 14.166506,2.04072289 14.166506,2.5 L14.166506,15.833253 C14.166506,16.293494 13.7939759,16.666747 13.333253,16.666747 C12.8727711,16.666747 12.5,16.293494 12.5,15.833253 L12.5,2.5 C12.5,1.12144578 13.6214458,0 15,0 L37.5,0 C38.8785542,0 40,1.12144578 40,2.5 L40,17.5 C40,18.8785542 38.8785542,20 37.5,20 L36.1785542,20 L31.4224096,24.7559036 C31.2628916,24.9151807 31.0496386,25 30.833253,25" id="Fill-7" fill="#4086FF"></path>
                                    <path d="M21.666747,10.8333735 L20.833253,10.8333735 C20.3727711,10.8333735 20,10.4601205 20,10.0001205 C20,9.53987952 20.3727711,9.16662651 20.833253,9.16662651 L21.666747,9.16662651 C22.1272289,9.16662651 22.5,9.53987952 22.5,10.0001205 C22.5,10.4601205 22.1272289,10.8333735 21.666747,10.8333735" id="Fill-9" fill="#4086FF"></path>
                                    <path d="M26.666747,10.8333735 L25.833253,10.8333735 C25.3727711,10.8333735 25,10.4601205 25,10.0001205 C25,9.53987952 25.3727711,9.16662651 25.833253,9.16662651 L26.666747,9.16662651 C27.1272289,9.16662651 27.5,9.53987952 27.5,10.0001205 C27.5,10.4601205 27.1272289,10.8333735 26.666747,10.8333735" id="Fill-11" fill="#4086FF"></path>
                                    <path d="M31.666747,10.8333735 L30.833253,10.8333735 C30.3727711,10.8333735 30,10.4601205 30,10.0001205 C30,9.53987952 30.3727711,9.16662651 30.833253,9.16662651 L31.666747,9.16662651 C32.1272289,9.16662651 32.5,9.53987952 32.5,10.0001205 C32.5,10.4601205 32.1272289,10.8333735 31.666747,10.8333735" id="Fill-13" fill="#4086FF"></path>
                                </g>
                            </g>
                        </g>
                    </g>
                </g>
            </g>
        </g>
    </g>
</svg>