<?xml version="1.0" encoding="UTF-8"?>
<svg width="41px" height="40px" viewBox="0 0 41 40" version="1.1" xmlns="http://www.w3.org/2000/svg" xmlns:xlink="http://www.w3.org/1999/xlink">
    <title>Stay Connected 2</title>
    <defs>
        <polygon id="path-1" points="0.10182659 0.0702427746 22.5283237 0.0702427746 22.5283237 21.6660809 0.10182659 21.6660809"></polygon>
    </defs>
    <g id="Symbols" stroke="none" stroke-width="1" fill="none" fill-rule="evenodd">
        <g id="Dropdown-menu/Products" transform="translate(-334.000000, -128.000000)">
            <g id="Group" transform="translate(0.000000, 16.000000)">
                <g id="Menu" transform="translate(0.000000, 34.000000)">
                    <g id="AI-Marketplace-Copy-3" transform="translate(318.000000, 66.000000)">
                        <g id="ROW">
                            <g id="↳-Body-1-Color-&amp;-Style" transform="translate(16.000000, 11.000000)">
                                <g id="Stay-Connected-2" transform="translate(0.000000, 1.000000)">
                                    <path d="M20.7653642,39.8693642 L2.49183815,39.8693642 C1.1177341,39.8693642 4.62427746e-05,38.7516763 4.62427746e-05,37.3775723 L4.62427746e-05,2.49179191 C4.62427746e-05,1.11768786 1.1177341,0 2.49183815,0 L20.7653642,0 C22.139237,0 23.2571561,1.11768786 23.2571561,2.49179191 L23.2571561,4.15306358 C23.2571561,4.61179191 22.8855954,4.98358382 22.4266358,4.98358382 C21.9674451,4.98358382 21.5958844,4.61179191 21.5958844,4.15306358 L21.5958844,2.49179191 C21.5958844,2.03398844 21.2233988,1.66127168 20.7653642,1.66127168 L2.49183815,1.66127168 C2.03403468,1.66127168 1.66108671,2.03398844 1.66108671,2.49179191 L1.66108671,37.3775723 C1.66108671,37.8358382 2.03403468,38.2080925 2.49183815,38.2080925 L20.7653642,38.2080925 C21.2233988,38.2080925 21.5958844,37.8358382 21.5958844,37.3775723 L21.5958844,31.563237 C21.5958844,31.1042775 21.9674451,30.7324855 22.4266358,30.7324855 C22.8855954,30.7324855 23.2571561,31.1042775 23.2571561,31.563237 L23.2571561,37.3775723 C23.2571561,38.7516763 22.139237,39.8693642 20.7653642,39.8693642" id="Fill-1" fill="#220D3A"></path>
                                    <g id="Group-5" transform="translate(17.341040, 6.574566)">
                                        <mask id="mask-2" fill="white">
                                            <use xlink:href="#path-1"></use>
                                        </mask>
                                        <g id="Clip-4"></g>
                                        <path d="M2.5936185,1.73151445 C2.13581503,1.73151445 1.76309827,2.10423121 1.76309827,2.56203468 L1.76309827,14.1907052 C1.76309827,14.6492023 2.13581503,15.0212254 2.5936185,15.0212254 L5.0854104,15.0212254 C5.54460116,15.0212254 5.91616185,15.3927861 5.91616185,15.8519769 L5.91616185,19.1745202 L11.2322312,15.1876994 C11.375815,15.0797225 11.5501503,15.0212254 11.7304971,15.0212254 L20.0363931,15.0212254 C20.4948902,15.0212254 20.8671445,14.6492023 20.8671445,14.1907052 L20.8671445,2.56203468 C20.8671445,2.10423121 20.4948902,1.73151445 20.0363931,1.73151445 L2.5936185,1.73151445 Z M5.0854104,21.6660809 C4.95893642,21.6660809 4.83176879,21.636948 4.71408092,21.5784509 C4.43246243,21.4374104 4.25489017,21.150474 4.25489017,20.8355607 L4.25489017,16.6827283 L2.5936185,16.6827283 C1.21951445,16.6827283 0.10182659,15.5648092 0.10182659,14.1907052 L0.10182659,2.56203468 C0.10182659,1.18793064 1.21951445,0.0702427746 2.5936185,0.0702427746 L20.0363931,0.0702427746 C21.4107283,0.0702427746 22.5284162,1.18793064 22.5284162,2.56203468 L22.5284162,14.1907052 C22.5284162,15.5648092 21.4107283,16.6827283 20.0363931,16.6827283 L12.0070289,16.6827283 L5.5836763,21.5000694 C5.43754913,21.6103584 5.26159538,21.6660809 5.0854104,21.6660809 L5.0854104,21.6660809 Z" id="Fill-3" fill="#4086FF" mask="url(#mask-2)"></path>
                                    </g>
                                    <path d="M28.5157688,16.9513064 C28.6487168,16.9513064 28.7809711,16.9829827 28.9028208,17.0465665 L30.1492948,17.7025202 L29.9118382,16.3138497 C29.8655954,16.0444855 29.9548439,15.7695723 30.1502197,15.5788208 L31.1594682,14.5954682 L29.7647861,14.3924624 C29.4940347,14.3531561 29.2605087,14.1832139 29.1395838,13.937896 L28.5157688,12.6745434 L27.892185,13.937896 C27.7710289,14.1832139 27.5377341,14.3531561 27.2667514,14.3924624 L25.8729942,14.5954682 L26.8822428,15.5785896 C27.0776185,15.7695723 27.1668671,16.0444855 27.1206243,16.3140809 L26.8822428,17.7025202 L28.128948,17.0465665 C28.2505665,16.9829827 28.3828208,16.9513064 28.5157688,16.9513064 M31.2526474,20.051422 C31.1203931,20.051422 30.9872139,20.0197457 30.8655954,19.9561618 L28.5157688,18.7203237 L26.1659422,19.9561618 C25.8861734,20.1034451 25.5469827,20.0787052 25.2907977,19.8928092 C25.0350751,19.7071445 24.9072139,19.392 24.9606243,19.0800925 L25.4098728,16.4634451 L23.5079075,14.6102659 C23.2813179,14.3896879 23.2003931,14.0595145 23.2977341,13.758474 C23.3950751,13.4581272 23.655422,13.2391676 23.9684855,13.1933873 L26.5957688,12.8111908 L27.7710289,10.4303815 C28.050104,9.86344509 28.9814335,9.86344509 29.2605087,10.4303815 L30.4357688,12.8111908 L33.063052,13.1933873 C33.3761156,13.2387052 33.6357688,13.4581272 33.7338035,13.758474 C33.8311445,14.059052 33.7502197,14.3892254 33.5238613,14.6100347 L31.6225896,16.4634451 L32.0711445,19.0805549 C32.1245549,19.392 31.9964624,19.7071445 31.7407399,19.8928092 C31.5955376,19.9980116 31.4244393,20.051422 31.2526474,20.051422" id="Fill-6" fill="#4086FF"></path>
                                    <path d="M5.84793064,22.4264971 C5.82920231,22.4264971 5.81417341,22.4410636 5.81417341,22.4597919 L5.81417341,27.4103121 L6.64492486,27.4103121 C7.10365318,27.4103121 7.47544509,27.7816416 7.47544509,28.2406012 L7.47544509,29.0942428 L9.51035838,27.6040694 C9.65255491,27.4993295 9.82457803,27.4433757 10.0009942,27.4433757 L13.2560231,27.4433757 L13.2893179,22.4264971 L5.84793064,22.4264971 Z M6.64492486,31.5633757 C6.51660116,31.5633757 6.38781503,31.5333179 6.26943353,31.4732023 C5.99035838,31.3321618 5.81417341,31.0456879 5.81417341,30.7326243 L5.81417341,29.0713526 C4.88284393,29.0713526 4.15313295,28.3414104 4.15313295,27.4103121 L4.15313295,22.4597919 C4.15313295,21.5254566 4.91359538,20.7652254 5.84793064,20.7652254 L13.3559075,20.7652254 C14.2356763,20.7652254 14.951052,21.4806012 14.951052,22.3599075 L14.951052,27.4103121 C14.951052,28.3446474 14.1905896,29.1046474 13.2560231,29.1046474 L10.2729017,29.1046474 L7.13556069,31.4026821 C6.99035838,31.5088092 6.81810405,31.5633757 6.64492486,31.5633757 L6.64492486,31.5633757 Z" id="Fill-8" fill="#220D3A"></path>
                                    <path d="M5.91486705,8.27243931 C5.89613873,8.27243931 5.88110983,8.28746821 5.88110983,8.30619653 L5.88110983,13.2560231 L6.64504046,13.2897803 C7.10353757,13.2897803 7.47556069,13.6618035 7.47556069,14.1203006 L7.47556069,14.951052 L9.46885549,13.4560231 C9.61290173,13.3482775 9.78769942,13.2897803 9.9673526,13.2897803 L13.323422,13.2897803 L13.3562543,8.27243931 L5.91486705,8.27243931 Z M6.64504046,17.4428439 C6.51833526,17.4428439 6.39093642,17.4141734 6.27347977,17.3552139 C5.99186127,17.2144046 5.81428902,16.9270058 5.81428902,16.6123237 L5.81428902,14.9482775 C4.92642775,14.8957919 4.22006936,14.1568324 4.22006936,13.2560231 L4.22006936,8.30619653 C4.22006936,7.37163006 4.98030058,6.61116763 5.91486705,6.61116763 L13.4228439,6.61116763 C14.3026127,6.61116763 15.0179884,7.32677457 15.0179884,8.20631214 L15.0179884,13.2560231 C15.0179884,14.1905896 14.2577572,14.951052 13.323422,14.951052 L10.2443468,14.951052 L7.14330636,17.2766012 C6.99648555,17.3864277 6.82122543,17.4428439 6.64504046,17.4428439 L6.64504046,17.4428439 Z" id="Fill-10" fill="#220D3A"></path>
                                    <path d="M13.2897341,36.5470289 L9.96742197,36.5470289 C9.50869364,36.5470289 9.13667052,36.1754682 9.13667052,35.7162775 C9.13667052,35.2573179 9.50869364,34.885526 9.96742197,34.885526 L13.2897341,34.885526 C13.7484624,34.885526 14.1204855,35.2573179 14.1204855,35.7162775 C14.1204855,36.1754682 13.7484624,36.5470289 13.2897341,36.5470289" id="Fill-12" fill="#220D3A"></path>
                                </g>
                            </g>
                        </g>
                    </g>
                </g>
            </g>
        </g>
    </g>
</svg>