<?xml version="1.0" encoding="UTF-8"?>
<svg width="40px" height="40px" viewBox="0 0 40 40" version="1.1" xmlns="http://www.w3.org/2000/svg" xmlns:xlink="http://www.w3.org/1999/xlink">
    <title>Telegram 2</title>
    <g id="Symbols" stroke="none" stroke-width="1" fill="none" fill-rule="evenodd">
        <g id="Dropdown-menu/Community/3" transform="translate(-17.000000, -127.000000)">
            <g id="Group" transform="translate(0.000000, 16.000000)">
                <g id="Menu" transform="translate(0.000000, 34.000000)">
                    <g id="AI-Marketplace-Copy" transform="translate(0.000000, 66.000000)">
                        <g id="ROW">
                            <g id="↳-Body-1-Color-&amp;-Style" transform="translate(17.000000, 11.000000)">
                                <g id="Telegram-2">
                                    <path d="M19.982135,39.9641718 L3.33035583,39.9641718 C1.49354601,39.9641718 4.90797546e-05,38.4704294 4.90797546e-05,36.633865 L4.90797546e-05,3.33030675 C4.90797546e-05,1.49349693 1.49354601,0 3.33035583,0 L19.982135,0 C21.8189448,0 23.3124417,1.49349693 23.3124417,3.33030675 L23.3124417,6.6606135 C23.3124417,7.1207362 22.9401718,7.49325153 22.4798037,7.49325153 C22.019681,7.49325153 21.647411,7.1207362 21.647411,6.6606135 L21.647411,3.33030675 C21.647411,2.41226994 20.9001718,1.66503067 19.982135,1.66503067 L3.33035583,1.66503067 C2.41231902,1.66503067 1.66507975,2.41226994 1.66507975,3.33030675 L1.66507975,36.633865 C1.66507975,37.5519018 2.41231902,38.2991411 3.33035583,38.2991411 L19.982135,38.2991411 C20.9001718,38.2991411 21.647411,37.5519018 21.647411,36.633865 L21.647411,33.3033129 C21.647411,32.8431902 22.019681,32.4709202 22.4798037,32.4709202 C22.9401718,32.4709202 23.3124417,32.8431902 23.3124417,33.3033129 L23.3124417,36.633865 C23.3124417,38.4704294 21.8189448,39.9641718 19.982135,39.9641718" id="Fill-1" fill="#220D3A"></path>
                                    <path d="M13.3213988,36.6337914 L9.99109202,36.6337914 C9.53096933,36.6337914 9.15845399,36.2612761 9.15845399,35.8011534 C9.15845399,35.3410307 9.53096933,34.9687607 9.99109202,34.9687607 L13.3213988,34.9687607 C13.7815215,34.9687607 14.1540368,35.3410307 14.1540368,35.8011534 C14.1540368,36.2612761 13.7815215,36.6337914 13.3213988,36.6337914" id="Fill-3" fill="#220D3A"></path>
                                    <path d="M20.8147975,25.810135 C20.6017914,25.810135 20.3887853,25.728908 20.2260859,25.5662086 C19.9006871,25.2410552 19.9006871,24.714184 20.2260859,24.3887853 L24.1451043,20.4697669 L24.1451043,16.333816 L17.9446135,13.2334479 C17.6469448,13.0847362 17.4663313,12.772589 17.4859632,12.4400736 C17.5055951,12.1073129 17.7217914,11.8179877 18.0346748,11.7055951 L38.8493988,4.21234356 C39.1318528,4.11074847 39.448908,4.17013497 39.6746748,4.3644908 C39.9024049,4.56031902 40.0074356,4.8643681 39.9480491,5.15884663 L36.6174969,21.8106258 C36.5657178,22.0732025 36.3900123,22.2945521 36.1460859,22.4049816 C35.9021595,22.5146748 35.6209325,22.5024049 35.3882945,22.3698896 L30.1122209,19.3551656 L28.8967607,20.5706258 C28.571362,20.8960245 28.0447362,20.8960245 27.7193374,20.5706258 C27.394184,20.2454724 27.394184,19.7186012 27.7193374,19.3934479 L29.3846135,17.7281718 C29.6496442,17.4631411 30.0594601,17.4062086 30.3863313,17.594184 L35.2118528,20.3512393 L38.0260859,6.27835583 L20.4285399,12.6140613 L25.3500123,15.074184 C25.6322209,15.2157791 25.810135,15.5036319 25.810135,15.8192147 L25.810135,20.8147975 C25.810135,21.0359018 25.7225276,21.2471902 25.5662086,21.4032638 L21.4032638,25.5662086 C21.2408098,25.728908 21.0278037,25.810135 20.8147975,25.810135" id="Fill-5" fill="#4086FF"></path>
                                    <path d="M14.9865767,24.9775951 C14.7735706,24.9775951 14.5605644,24.8963681 14.397865,24.7336687 C14.0727117,24.4085153 14.0727117,23.8813988 14.397865,23.5562454 L19.3934479,18.560908 C19.7186012,18.2355092 20.2457178,18.2355092 20.5708712,18.560908 C20.8960245,18.8860613 20.8960245,19.4129325 20.5708712,19.7380859 L15.5752883,24.7336687 C15.412589,24.8963681 15.1995828,24.9775951 14.9865767,24.9775951" id="Fill-7" fill="#4086FF"></path>
                                    <path d="M23.3123926,29.9730307 C23.0996319,29.9730307 22.8866258,29.8918037 22.7239264,29.7291043 C22.3985276,29.4039509 22.3985276,28.8770798 22.7239264,28.5519264 L25.2215951,26.0540123 C25.5467485,25.7288589 26.0736196,25.7288589 26.398773,26.0540123 C26.7241718,26.3791656 26.7241718,26.9062822 26.398773,27.2314356 L23.9011043,29.7291043 C23.7384049,29.8918037 23.5253988,29.9730307 23.3123926,29.9730307" id="Fill-9" fill="#4086FF"></path>
                                </g>
                            </g>
                        </g>
                    </g>
                </g>
            </g>
        </g>
    </g>
</svg>